Coordinates
version=1
nRows=24
nColumns=24
inDegrees=yes

Units are S.I. units (second, meters, Newtons, ...)
Angles are in degrees.

endheader
time	pelvis_tilt	pelvis_list	pelvis_rotation	pelvis_tx	pelvis_ty	pelvis_tz	hip_flexion_r	hip_adduction_r	hip_rotation_r	knee_angle_r	ankle_angle_r	subtalar_angle_r	mtp_angle_r	hip_flexion_l	hip_adduction_l	hip_rotation_l	knee_angle_l	ankle_angle_l	subtalar_angle_l	mtp_angle_l	lumbar_extension	lumbar_bending	lumbar_rotation
      0.47100000	     -2.78219258	      3.71516609	      1.15374212	     -0.85350677	      0.99832184	      0.28318497	     24.39667407	     -3.36609670	     -7.09977746	      0.43045899	     -0.60811406	     -7.46890556	     -6.43732743	     -7.57337762	      5.33409086	     -5.27694639	    -10.42500944	     12.02277075	    -10.92033660	    -11.43959026	    -10.37642380	     -3.94183736	     -0.93358384
      0.47516667	     -2.57986124	      3.61073888	      1.17238064	     -0.84752124	      0.99792334	      0.28333969	     24.23121741	     -3.25385791	     -7.12122120	      0.10177612	     -0.73624521	     -7.50386897	     -6.35240396	     -7.90955357	      5.15311279	     -5.27442384	    -10.94955245	     12.21658694	    -10.72103288	    -11.45831197	    -10.58346591	     -3.73977475	     -0.94463957
      0.47933333	     -2.37039681	      3.49328024	      1.17991246	     -0.84153536	      0.99757460	      0.28351359	     24.06702198	     -3.12376933	     -7.12585992	     -0.30153730	     -0.91657770	     -7.60114365	     -6.25578790	     -8.23170030	      4.95914361	     -5.26302651	    -11.51316210	     12.37753324	    -10.56809774	    -11.46097972	    -10.79942455	     -3.52134003	     -0.97378737
      0.48350000	     -2.08638918	      3.33896479	      1.18770647	     -0.83549306	      0.99739159	      0.28369970	     23.80866115	     -2.95536621	     -7.14644739	     -0.74073225	     -1.13733646	     -7.71586913	     -6.12405505	     -8.61900382	      4.71612098	     -5.29050671	    -12.10365117	     12.49981932	    -10.38493157	    -11.44385640	    -11.10342588	     -3.25948334	     -1.00179820
      0.48766667	     -1.88693488	      3.19265565	      1.20887751	     -0.82943535	      0.99711979	      0.28384899	     23.65587930	     -2.80308510	     -7.17653816	     -1.26024383	     -1.40247499	     -7.88323099	     -5.99306013	     -8.88123694	      4.48396488	     -5.28202408	    -12.76440345	     12.59930367	    -10.24280328	    -11.40973666	    -11.30075347	     -2.99859811	     -1.03253102
      0.49183333	     -1.60609388	      3.01791577	      1.21629967	     -0.82334740	      0.99700663	      0.28404519	     23.40357707	     -2.61331635	     -7.19205734	     -1.79992818	     -1.70797852	     -8.09536591	     -5.82135692	     -9.20508806	      4.21109579	     -5.33381665	    -13.47731207	     12.67662140	    -10.05453749	    -11.34556000	    -11.59155386	     -2.70362555	     -1.06364547
      0.49600000	     -1.33658986	      2.83354554	      1.17886936	     -0.81718801	      0.99691209	      0.28432799	     23.16750174	     -2.39470968	     -7.17029174	     -2.37844595	     -2.06263944	     -8.33056469	     -5.53737539	     -9.50710656	      3.93263299	     -5.44018127	    -14.20758578	     12.71244778	     -9.90104492	    -11.21090134	    -11.85920198	     -2.40228626	     -1.09555090
      0.50016667	     -1.12080355	      2.66751157	      1.22074186	     -0.81107989	      0.99679171	      0.28444691	     22.99330517	     -2.23234823	     -7.22555428	     -3.01220923	     -2.43487909	     -8.63197756	     -5.35334770	     -9.69639717	      3.66709649	     -5.44048845	    -15.03600869	     12.68908099	     -9.77511574	    -11.09974997	    -12.06765720	     -2.10802641	     -1.07763476
      0.50433333	     -0.86374465	      2.47248968	      1.20847914	     -0.80490108	      0.99677090	      0.28470803	     22.75677679	     -2.01149418	     -7.20835861	     -3.62767584	     -2.85069938	     -8.95661311	     -5.12201151	     -9.90717551	      3.36491815	     -5.54854552	    -15.91271655	     12.64368203	     -9.62436543	    -10.93631635	    -12.32180441	     -1.79099774	     -1.10478641
      0.50850000	     -0.55680891	      2.27125582	      1.10316863	     -0.79869222	      0.99683076	      0.28516246	     22.48934638	     -1.74506210	     -7.11902082	     -4.29269698	     -3.28919669	     -9.32833367	     -4.59423097	    -10.16800767	      3.06134025	     -5.77578619	    -16.79528283	     12.56352422	     -9.44781432	    -10.50311448	    -12.62977716	     -1.48833756	     -1.07074189
      0.51266667	     -0.42576244	      2.13047890	      1.14473216	     -0.79259537	      0.99669858	      0.28526278	     22.41286010	     -1.61732916	     -7.16121500	     -5.00155112	     -3.70058205	     -9.61924947	     -4.49424750	    -10.15372398	      2.82753062	     -5.75269605	    -17.82654233	     12.41013325	     -9.48989226	    -10.40307355	    -12.74467268	     -1.22391425	     -1.01128077
      0.51683333	     -0.09195000	      1.88997124	      1.00820137	     -0.78632259	      0.99688874	      0.28588737	     22.07914912	     -1.28444991	     -6.98954507	     -5.62563135	     -4.19331677	    -10.11936109	     -4.00518320	    -10.36865619	      2.45583764	     -6.11636022	    -18.84868135	     12.19778301	     -9.22537676	     -9.86177046	    -13.08513426	     -0.89331403	     -1.00113567
      0.52100000	      0.01595153	      1.72557580	      1.03332225	     -0.78015505	      0.99681998	      0.28601541	     22.01522827	     -1.12901028	     -7.03648356	     -6.34347929	     -4.62305018	    -10.43118677	     -3.89756858	    -10.26620178	      2.19433919	     -6.12378929	    -19.98685653	     11.89147804	     -9.33627655	     -9.71876645	    -13.16287866	     -0.60438356	     -0.90834907
      0.52516667	      0.17666060	      1.53050007	      0.99024780	     -0.77394331	      0.99686183	      0.28636365	     21.87516763	     -0.90058366	     -6.97485296	     -7.02333692	     -5.08383239	    -10.87351846	     -3.75194844	    -10.18524773	      1.88274227	     -6.29514128	    -21.18526131	     11.54245930	     -9.34238941	     -9.50115922	    -13.29874651	     -0.28918412	     -0.89539647
      0.52933333	      0.26941114	      1.40415562	      0.71044456	     -0.76776079	      0.99670051	      0.28736544	     21.86978770	     -0.62957683	     -6.59449085	     -7.77303219	     -5.54634713	    -11.43589919	      0.95745338	    -10.01251556	      1.63367541	     -6.81298774	    -22.42334039	     11.01581189	     -9.28940097	     -1.17398824	    -13.35666560	     -0.14972351	     -0.67249730
      0.53350000	      0.49614431	      1.18192342	      0.73317246	     -0.76155248	      0.99697475	      0.28753300	     21.61290913	     -0.41368089	     -6.64709796	     -8.40091599	     -5.93396349	    -11.70173819	      0.93236148	     -9.91168856	      1.27757109	     -6.92514887	    -23.76471973	     10.54016503	     -9.37669456	     -1.10701377	    -13.57110752	      0.20420835	     -0.58888815
      0.53766667	      0.67238511	      0.98287098	      0.65325180	     -0.75534162	      0.99715963	      0.28791357	     21.44699773	     -0.18205455	     -6.58911373	     -9.10060153	     -6.22755534	    -11.96699497	      0.91692064	     -9.73914586	      0.95487010	     -7.13997158	    -25.12897810	      9.93618038	     -9.51174925	     -1.03941191	    -13.73394547	      0.53084329	     -0.54033053
      0.54183333	      0.84325710	      0.77421451	      0.40119729	     -0.74915530	      0.99728050	      0.28890201	     21.28529500	      0.16507871	     -6.24207708	     -9.75569720	     -6.61719323	    -12.46170630	      0.84253513	     -9.51876908	      0.58003195	     -7.66877236	    -26.59890383	      9.37204260	     -9.41530197	     -0.53662284	    -13.89055612	      0.76244839	     -0.27104939
      0.54600000	      0.95922815	      0.58234074	      0.35454397	     -0.74297901	      0.99746530	      0.28924779	     21.15768902	      0.37240034	     -6.20796468	    -10.42518621	     -6.82672034	    -12.64458392	      0.82621761	     -9.17787253	      0.24564077	     -7.84142312	    -28.11774945	      8.60650376	     -9.65574899	     -0.43528227	    -13.98625438	      1.06072435	     -0.18320231
      0.55016667	      1.03818974	      0.38355025	      0.22834924	     -0.73683972	      0.99757135	      0.28989047	     21.06508669	      0.63802798	     -6.04418466	    -11.05996949	     -7.14535914	    -12.99560901	      0.78828169	     -8.74720837	     -0.12319599	     -8.15804904	    -29.73453121	      7.85518595	     -9.84374430	     -0.17832105	    -14.02611453	      1.31891691	     -0.01711315
      0.55433333	      1.10135287	      0.18862408	     -0.04149066	     -0.73069514	      0.99759840	      0.29092025	     21.01583861	      0.96509723	     -5.71144530	    -11.75425514	     -7.24103936	    -13.26674799	     -0.43535264	     -8.29198697	     -0.51067178	     -8.67218946	    -31.37087829	      6.95412390	     -9.99358360	      7.80318568	    -14.06869573	      1.54498805	      0.30975394
      0.55850000	      1.23468892	     -0.03931620	     -0.13287386	     -0.72455059	      0.99786829	      0.29142560	     20.82850612	      1.22813086	     -5.64348521	    -12.36326865	     -7.28909079	    -13.32497761	     -0.43113361	     -7.85190887	     -0.92459111	     -8.92679346	    -33.06546804	      6.02719585	    -10.27675482	      7.80855040	    -14.18663443	      1.86617874	      0.40694607
      0.56266667	      1.23532182	     -0.26940300	     -0.28208831	     -0.71844109	      0.99790764	      0.29215261	     20.78877741	      1.53159474	     -5.49047055	    -12.96011015	     -7.47693315	    -13.56566295	     -0.43533725	     -7.22422737	     -1.36177224	     -9.24746888	    -34.85062104	      5.10810109	    -10.57893033	      7.86173869	    -14.14921710	      2.16036349	      0.65286684
      0.56683333	      1.20699616	     -0.48476668	     -0.48833680	     -0.71236201	      0.99785936	      0.29310122	     20.79033663	      1.85127719	     -5.26058300	    -13.59145946	     -7.45408122	    -13.74401335	     -0.45350762	     -6.54140122	     -1.80757438	     -9.62844549	    -36.67489382	      4.15329502	    -10.80636161	      7.97725361	    -14.07863996	      2.38567178	      0.95544209
